<svg xmlns="http://www.w3.org/2000/svg" version="1.1" xmlns:xlink="http://www.w3.org/1999/xlink" xmlns:svgjs="http://svgjs.com/svgjs" width="1440" height="560" preserveAspectRatio="none" viewBox="0 0 1440 560"><g mask="url(&quot;#SvgjsMask1001&quot;)" fill="none"><rect width="1440" height="560" x="0" y="0" fill="rgba(44, 115, 59, 1)"></rect><path d="M0,537.159C114.196,545.582,232.718,572.117,336.273,523.251C445.396,471.757,543.44,379.644,578.479,264.182C612.468,152.179,536.404,41.108,517.65,-74.427C499.339,-187.234,554.796,-330.75,469.552,-406.869C381.951,-485.093,242.281,-423.86,124.845,-425.184C40.97,-426.13,-37.808,-420.186,-121.424,-413.531C-229.686,-404.914,-354.658,-448.85,-438.904,-380.312C-522.902,-311.976,-532.854,-185.203,-535.153,-76.943C-537.285,23.473,-489.839,113.353,-451.356,206.127C-411.4,302.45,-389.923,414.214,-305.834,475.887C-220.262,538.647,-105.832,529.352,0,537.159" fill="#235c2f"></path><path d="M1440 1188.949C1555.272 1218.508 1669.554 1137.2910000000002 1770.372 1074.068 1872.075 1010.29 1972.0929999999998 934.956 2020.328 825.027 2068.254 715.802 2056.066 591.784 2033.371 474.68600000000004 2011.508 361.88300000000004 1971.56 251.31599999999997 1892.9 167.56 1815.924 85.59800000000001 1710.4180000000001 36.966999999999985 1600.413 13.683999999999969 1495.785-8.461000000000013 1392.231 19.60699999999997 1287.122 39.346000000000004 1170.003 61.339999999999975 1036.162 53.023000000000025 950.395 135.755 863.211 219.85399999999998 849.512 352.824 837.216 473.33299999999997 825.311 590.011 807.593 723.838 881.065 815.2570000000001 953.8299999999999 905.797 1106.549 864.046 1203.1109999999999 928.606 1302.665 995.1659999999999 1323.998 1159.203 1440 1188.949" fill="#358a47"></path></g><defs><mask id="SvgjsMask1001"><rect width="1440" height="560" fill="#ffffff"></rect></mask></defs></svg>